<?xml version="1.0" encoding="UTF-8"?>
<svg id="Layer_2" data-name="Layer 2" xmlns="http://www.w3.org/2000/svg" width="47.15" height="53.88" viewBox="0 0 47.15 53.88">
  <defs>
    <style>
      .cls-1 {
        fill: #4c71f0;
        stroke-width: 0px;
      }
    </style>
  </defs>
  <g id="Layer_1-2" data-name="Layer 1">
    <g id="SvgjsG1452">
      <path class="cls-1" d="m23.57,0L0,13.47v26.94l23.57,13.47,23.57-13.47h0V13.47L23.57,0Zm0,5.19l16.76,9.58-4.53,2.59-12.23-6.99-12.23,6.99-4.54-2.59L23.57,5.19Zm9.97,16.06v8.8l-7.7-4.39v-8.8l7.7,4.4Zm-12.23-4.4v8.79l-7.69,4.4v-8.8l7.69-4.4Zm0,30.55l-16.77-9.58v-19.17l4.54,2.59v13.98l12.23,6.99v5.18Zm-5.43-13.47l7.7-4.4,7.7,4.4-7.7,4.4-7.7-4.4Zm26.74,3.89l-16.77,9.58v-5.18l12.23-6.99v-13.99l4.54-2.59v19.17h0Z"/>
    </g>
  </g>
</svg>